<?xml version="1.0" encoding="UTF-8" standalone="no"?>
<!DOCTYPE svg PUBLIC "-//W3C//DTD SVG 1.1//EN" "http://www.w3.org/Graphics/SVG/1.1/DTD/svg11.dtd">
<svg width="100%" height="100%" viewBox="0 0 2835 2835" version="1.1" xmlns="http://www.w3.org/2000/svg" xmlns:xlink="http://www.w3.org/1999/xlink" xml:space="preserve" xmlns:serif="http://www.serif.com/" style="fill-rule:evenodd;clip-rule:evenodd;stroke-linejoin:round;stroke-miterlimit:2;">
    <g fill="#ffffff" transform="matrix(1.39718,0,0,1.36111,-562.59,-466.609)">
        <path d="M1647.94,857.47C1673.12,839.356 1706.27,833 1738.08,843.196C1769.89,853.392 1793.16,877.834 1803.12,907.216C1777.94,925.328 1744.79,931.685 1712.98,921.488C1681.17,911.291 1657.9,886.85 1647.94,857.47ZM1580.86,734.134C1603.99,709.553 1638.06,695.871 1674.15,700.144C1710.24,704.418 1740.18,725.68 1756.92,754.983C1733.8,779.562 1699.72,793.246 1663.63,788.971C1627.55,784.697 1597.61,763.437 1580.86,734.134ZM1569.08,518.56C1602.26,512.389 1637.84,521.478 1664.43,546.246C1691.03,571.013 1702.62,605.852 1698.82,639.388C1665.64,645.56 1630.07,636.47 1603.47,611.703C1576.88,586.937 1565.28,552.099 1569.08,518.56ZM1791.37,507.537C1822.14,521.403 1846.17,549.167 1853.88,584.683C1861.58,620.199 1851.22,655.423 1828.97,680.798C1798.2,666.931 1774.17,639.166 1766.46,603.652C1758.75,568.138 1769.11,532.912 1791.37,507.537ZM2016.77,409.677C2034.86,438.17 2039.67,474.57 2026.6,508.479C2013.52,542.386 1985.51,566.123 1952.97,575.096C1934.88,546.6 1930.07,510.2 1943.14,476.293C1956.22,442.386 1984.23,418.647 2016.77,409.677ZM2132.5,627.94C2120.5,659.486 2094.23,685.133 2059.24,694.953C2024.25,704.771 1988.47,696.539 1961.8,675.844C1973.8,644.299 2000.08,618.653 2035.07,608.833C2070.06,599.012 2105.84,607.243 2132.5,627.94ZM2123.31,772.206C2114.82,804.872 2091.5,833.233 2057.78,846.809C2024.07,860.384 1987.61,856.103 1958.85,838.44C1967.34,805.773 1990.66,777.414 2024.37,763.838C2058.08,750.26 2094.55,754.54 2123.31,772.206ZM2008.27,1036.17C2023.38,1066.35 2024.49,1103.05 2008.04,1135.46C1991.6,1167.87 1961.33,1188.65 1928.05,1194.28C1912.94,1164.1 1911.83,1127.4 1928.27,1094.99C1944.71,1062.58 1974.99,1041.8 2008.27,1036.17ZM2183.16,945.375C2199.98,978.967 2201.21,1019.82 2182.91,1055.89C2164.61,1091.97 2130.91,1115.09 2093.87,1121.36C2077.06,1087.77 2075.82,1046.92 2094.12,1010.85C2112.42,974.775 2146.12,951.643 2183.16,945.375ZM2429.77,1119.07C2413.69,1153.02 2382.3,1179.19 2342.62,1187.03C2302.93,1194.86 2263.94,1182.6 2236.17,1157.31C2252.24,1123.35 2283.64,1097.19 2323.32,1089.35C2363,1081.51 2401.99,1093.77 2429.77,1119.07ZM2431.74,1246.92C2416.76,1278.55 2387.51,1302.93 2350.53,1310.23C2313.56,1317.53 2277.24,1306.11 2251.36,1282.54C2266.33,1250.91 2295.59,1226.53 2332.56,1219.23C2369.53,1211.93 2405.86,1223.35 2431.74,1246.92ZM2411.35,1465.53C2377.44,1474.22 2340,1467.29 2310.76,1443.51C2281.52,1419.73 2267.11,1384.49 2268.7,1349.52C2302.61,1340.84 2340.05,1347.77 2369.29,1371.55C2398.53,1395.32 2412.95,1430.57 2411.35,1465.53ZM2191.85,1483.95C2158.52,1473.28 2130.49,1447.49 2118.37,1411.81C2106.26,1376.12 2112.79,1338.61 2132.73,1309.84C2166.07,1320.52 2194.09,1346.3 2206.21,1381.98C2218.33,1417.66 2211.8,1455.18 2191.85,1483.95ZM2037.64,1445.97C2007.99,1436.48 1983.07,1413.55 1972.29,1381.81C1961.52,1350.07 1967.32,1316.71 1985.06,1291.12C2014.71,1300.62 2039.63,1323.55 2050.41,1355.28C2061.19,1387.02 2055.38,1420.38 2037.64,1445.97ZM2080.56,926.624C2065.83,953.49 2039,973.266 2006.31,977.722C1973.63,982.174 1942.49,970.301 1921.1,948.362C1935.83,921.499 1962.66,901.725 1995.35,897.269C2028.03,892.809 2059.18,904.684 2080.56,926.624ZM1438.36,780.377C1429.64,809.947 1407.5,835.148 1376.32,846.537C1345.14,857.926 1311.97,852.934 1286.24,835.951C1294.96,806.379 1317.1,781.182 1348.28,769.789C1379.46,758.396 1412.63,763.39 1438.36,780.377ZM1484.6,641.665C1471.79,675.344 1443.73,702.726 1406.38,713.211C1369.02,723.692 1330.82,714.904 1302.35,692.81C1315.16,659.131 1343.22,631.75 1380.57,621.266C1417.93,610.779 1456.13,619.569 1484.6,641.665ZM1479.77,447.543C1484.56,480.952 1474,516.12 1448.15,541.663C1422.3,567.208 1387.01,577.347 1353.67,572.162C1348.88,538.753 1359.43,503.585 1385.28,478.041C1411.13,452.496 1446.42,442.358 1479.77,447.543ZM1256.13,448.874C1281.07,464.881 1298.36,492.093 1300.48,523.934C1302.59,555.772 1289.06,585.032 1266.46,604.203C1241.52,588.195 1224.23,560.983 1222.11,529.143C1219.99,497.305 1233.53,468.044 1256.13,448.874ZM1152.86,546.705C1179.5,553.699 1202.59,572.788 1213.6,600.324C1224.61,627.859 1221.04,657.606 1206.57,681.037C1179.93,674.045 1156.84,654.954 1145.83,627.418C1134.82,599.885 1138.39,570.138 1152.86,546.705ZM792.949,594.557C822.785,578.781 859.453,576.859 892.218,592.581C924.984,608.301 946.429,638.105 952.795,671.248C922.958,687.024 886.291,688.947 853.526,673.224C820.762,657.507 799.315,627.703 792.949,594.557ZM1026.18,556.811C1051.74,567.046 1072.3,588.846 1079.82,617.531C1087.33,646.216 1080.11,675.294 1062.85,696.755C1037.29,686.521 1016.73,664.72 1009.21,636.034C1001.69,607.35 1008.92,578.273 1026.18,556.811ZM862.398,781.558C879.627,753.363 909.527,733.412 944.969,730.26C980.407,727.112 1013.36,741.475 1035.29,766.189C1018.07,794.386 988.163,814.337 952.722,817.488C917.283,820.643 884.331,806.276 862.398,781.558ZM990.011,875.776C1007.69,898.349 1035.47,912.538 1066.33,911.691C1097.19,910.846 1124.15,895.154 1140.57,871.645C1122.89,849.076 1095.11,834.885 1064.25,835.734C1033.39,836.579 1006.43,852.271 990.011,875.776ZM671.799,670.954C665.973,699.029 673.069,729.404 693.637,752.429C714.205,775.451 743.592,785.912 772.145,783.276C777.969,755.202 770.874,724.824 750.302,701.804C729.736,678.781 700.349,668.32 671.799,670.954ZM662.095,826.3C662.651,854.967 676.317,883.007 701.488,900.886C726.655,918.764 757.632,922.436 784.887,913.522C784.328,884.855 770.662,856.813 745.49,838.938C720.323,821.06 689.348,817.39 662.095,826.3ZM630.193,952.386C630.75,981.053 644.416,1009.09 669.586,1026.97C694.753,1044.85 725.73,1048.52 752.984,1039.61C752.426,1010.94 738.76,982.9 713.588,965.024C688.421,947.146 657.446,943.476 630.193,952.386ZM402.91,1124.11C423.187,1144.38 452.476,1155.11 483.01,1150.55C513.541,1145.98 538.41,1127.15 551.871,1101.83C531.592,1081.56 502.301,1070.83 471.769,1075.4C441.238,1079.96 416.371,1098.79 402.91,1124.11ZM514.526,981.45C515.036,1007.68 527.541,1033.34 550.575,1049.71C573.608,1066.07 601.956,1069.43 626.898,1061.27C626.386,1035.04 613.881,1009.37 590.845,993.014C567.814,976.655 539.465,973.296 514.526,981.45ZM535.445,1203.93C563.143,1211.34 593.873,1205.98 618.025,1186.75C642.18,1167.53 654.29,1138.78 653.279,1110.12C625.582,1102.72 594.852,1108.08 570.699,1127.31C546.546,1146.53 534.434,1175.28 535.445,1203.93ZM688.118,1207.73C715.815,1215.14 746.545,1209.78 770.698,1190.55C794.852,1171.32 806.963,1142.58 805.952,1113.92C778.254,1106.51 747.524,1111.87 723.372,1131.1C699.219,1150.33 687.107,1179.08 688.118,1207.73ZM899.158,1343.78C891.033,1371.27 895.598,1402.13 914.197,1426.77C932.795,1451.41 961.217,1464.26 989.889,1463.99C998.011,1436.5 993.448,1405.64 974.847,1381C956.249,1356.36 927.827,1343.51 899.158,1343.78ZM761.087,1342.76C752.586,1371.53 757.361,1403.82 776.823,1429.6C796.284,1455.39 826.024,1468.83 856.025,1468.55C864.524,1439.78 859.75,1407.49 840.286,1381.71C820.825,1355.92 791.085,1342.48 761.087,1342.76ZM604.003,1415.26C609.506,1444.75 628.435,1471.34 657.489,1485.46C686.542,1499.59 719.143,1498.05 745.739,1484.16C740.235,1454.67 721.308,1428.08 692.252,1413.96C663.201,1399.83 630.598,1401.37 604.003,1415.26ZM493.819,1577.05C515.908,1597.35 547.001,1607.28 578.722,1601.16C610.442,1595.04 635.608,1574.26 648.565,1547.2C626.476,1526.9 595.384,1516.97 563.663,1523.09C531.945,1529.21 506.775,1549.99 493.819,1577.05ZM658.874,1661.36C688.5,1666.09 719.906,1657.19 742.966,1634.57C766.028,1611.94 775.53,1580.72 771.384,1551C741.757,1546.28 710.354,1555.18 687.292,1577.8C664.231,1600.43 654.728,1631.65 658.874,1661.36ZM800.468,1666.95C829.39,1674.93 861.586,1669.56 887.008,1649.63C912.432,1629.69 925.33,1599.71 924.498,1569.72C895.575,1561.75 863.381,1567.12 837.956,1587.05C812.533,1606.98 799.634,1636.96 800.468,1666.95ZM1054.84,987.308C1033.98,1006.97 1022.39,1035.93 1026.05,1066.59C1029.71,1097.24 1047.8,1122.66 1072.71,1136.86C1093.57,1117.19 1105.16,1088.23 1101.5,1057.58C1097.84,1026.92 1079.75,1001.51 1054.84,987.308ZM946.986,894.641C926.122,914.308 914.527,943.267 918.189,973.922C921.852,1004.58 939.939,1029.99 964.848,1044.19C985.708,1024.52 997.304,995.565 993.641,964.91C989.979,934.257 971.891,908.842 946.986,894.641ZM1249.49,2425.67C1309.04,2050.57 1352.62,1450.37 659.165,1545.3C825.67,1484.69 972.432,1470.26 1099.44,1502.01C1115.4,1506 1131.02,1510.71 1146.3,1516.13C1130.89,1405.62 1001.92,1147.64 885.711,1110.53C758.181,1069.78 581.438,1103.24 560.056,1100.17C653.131,1076.99 748.179,1046.92 844.044,1046.21C837.359,1011.27 767.234,826.896 793.988,765.611C790.922,857.006 846.708,955.904 915.381,1030.61C1013.91,1137.79 1066.41,1151.49 1159.16,1304.09C1206.93,1382.68 1252.28,1474.47 1273.09,1583.04C1333.28,1486.78 1342.11,1170.31 1217.02,949.965C1123.7,785.584 1024.85,706.253 959.57,673.514C1028.11,685.893 1137.47,757.436 1192.74,808.571C1198.3,736.194 1276.87,617.697 1341.08,585.846C1280.97,648.485 1230.36,764.46 1295.25,920.342C1358.05,1030.95 1401.41,1182.46 1422.95,1382.87C1569.63,1313.29 1818.23,1098.26 1825.07,920.385C1828.35,835.207 1782.28,694.857 1705.86,648.416C1788.88,671.557 1853.81,814.916 1870.98,872.535C1894.97,804.127 1925.29,672.319 1943.97,592.422C1943.74,668.186 1936.13,807.786 1906.61,939.088C1877.91,1066.76 1825.75,1148.21 1745.07,1246.95C1781.26,1236.3 1909.82,1220.32 1956.2,1229.31C1990.4,1208.67 2117.48,1147.87 2219.89,1162.65C2165.53,1168.54 2072.88,1203 2029.28,1234.12C2133.06,1242.79 2219.63,1293.28 2262.41,1338.5C2164.48,1263.5 1913.1,1244.61 1723.43,1326.22C1601.22,1378.8 1496.26,1492.67 1475.1,1626.91C1435.68,1876.9 1505.05,2265.03 1548.64,2425.67L1249.49,2425.67Z" style="fill-rule:nonzero;"/>
    </g>
</svg>
